<svg xmlns="http://www.w3.org/2000/svg" viewBox="0 0 220 180" role="img" aria-labelledby="title desc">
  <title id="title">garden</title>
  <desc id="desc">Practice icon showing a garden</desc>
  <rect width="220" height="180" rx="24" fill="#edf4eb"/>
  <path d="M36 126c27-19 51-18 74-8 28 12 49 11 76-8v43H36z" fill="#6d8b46"/>
  <path d="M71 91c0-21 34-21 34 0 0 20-34 20-34 0zM117 83c0-24 39-24 39 0 0 23-39 23-39 0z" fill="#d8a522"/>
  <circle cx="88" cy="91" r="8" fill="#c5314b"/>
  <circle cx="137" cy="83" r="9" fill="#c5314b"/>
  <path d="M88 99v39M137 93v45" stroke="#3f7a3a" stroke-width="6" stroke-linecap="round"/>
  <text x="110" y="168" text-anchor="middle" font-family="Georgia, 'Times New Roman', serif" font-size="18" font-weight="700" fill="#17211f">garden</text>
</svg>
